<?xml version="1.0" encoding="utf-8"?>
<!-- Generator: Adobe Illustrator 23.0.2, SVG Export Plug-In . SVG Version: 6.00 Build 0)  -->
<svg version="1.1" id="Capa_1" xmlns="http://www.w3.org/2000/svg" xmlns:xlink="http://www.w3.org/1999/xlink" x="0px" y="0px"
	 viewBox="0 0 612 135" style="enable-background:new 0 0 612 135;" xml:space="preserve">
<style type="text/css">
	.st0{fill:#002B49;}
	.st1{fill:#69488E;}
</style>
<g>
	<path class="st0" d="M181.3,102.2c-0.3-1.5-1.6-2.2-3-1.7c-2,0.8-3.7,2-5.6,2.8c-2.9,1.3-6.2,1.9-9.7,1.9c-3.4,0-6.3-0.6-8.8-1.7
		c-2.5-1.1-4.5-2.6-6.2-4.5c-1.7-1.9-2.9-4.2-3.6-6.8c-0.8-2.6-1.2-5.5-1.2-8.5v-39c0-2.5,2.1-4.5,4.7-4.5h8.5c2.6,0,4.7,2,4.7,4.5
		v5.4c0,5.4,0,10.9,0,16.3c0,4.4,0,8.7,0,13.1c0,2.5-0.2,5.4,1.1,7.7c2.7,4.9,13.7,2.9,16.6-0.7c0.8-1,1.2-2.2,1.2-3.4
		c0-2.9,0-5.8,0-8.7c0-7.9,0-15.8,0-23.7c0-2,0-3.9,0-5.9c0-2.5,2.1-4.5,4.7-4.5h8.5c2.6,0,4.7,2,4.7,4.5v57.1c0,0.2,0,0.4-0.1,0.6
		c-0.1,0.4-0.4,0.7-0.7,1c-0.5,0.4-1.1,0.6-1.7,0.6l-11.9,0C182.3,104,181.5,103.3,181.3,102.2z"/>
	<path class="st0" d="M214.6,40h6.1c3.2,0,5.9,2.6,5.9,5.7v52.7c0,3.1-2.6,5.7-5.9,5.7h-6.1c-3.2,0-5.9-2.6-5.9-5.7V45.7
		C208.7,42.5,211.3,40,214.6,40z"/>
	<path class="st0" d="M288.4,101.7L288.4,101.7c0,1.4-1.2,2.6-2.7,2.6h-11.4c-1,0-1.8-0.7-2-1.6l0,0c-0.3-1.3-1.6-2-3-1.4
		c-2.3,1-4.4,2.1-6.6,2.8c-3,0.9-6.3,1.4-9.9,1.4c-2.7,0-5.1-0.4-7.3-1.3c-2.2-0.9-4.2-2.1-5.8-3.7c-1.6-1.6-2.9-3.4-3.8-5.5
		s-1.3-4.5-1.3-7.1c0-6.5,2.4-11.7,7.3-15.7c3.5-2.7,7.2-4.6,11.2-5.8c4-1.2,8.1-2.2,12.3-2.9c1.1-0.2,2.2-0.4,3.5-0.5
		c1-0.1,1.8-1,1.8-2l0-1.9c0-2.3-0.8-3.9-2.3-5c-1.5-1-3.4-1.5-5.6-1.5c-3.3,0-6,0.7-7.9,2.2c-0.9,0.6-1.7,1.4-2.5,2.2
		c-1.8,1.9-5.1,2.2-7.2,0.6l-3.1-2.3c-2.7-2-3-5.8-0.7-8.1c2.1-2.1,4.4-3.7,7-5c4.4-2.1,9.2-3.1,14.5-3.1c9.2,0,15.8,2.1,19.8,6.3
		c3.9,4.2,5.9,10.7,5.9,19.5v30.2L288.4,101.7z M265.2,76.3c-2.1,0.4-4.1,1-6,1.8c-1.9,0.8-3.5,1.8-4.8,3.1c-1.3,1.3-2,3-2,5
		c0,1.7,0.5,3.1,1.5,4.2c1,1.1,2.4,1.6,4.3,1.6c2.9,0,5.5-1.3,8-2.6c1.9-1,4.6-2.4,4.6-4.9l0-6.9c0-1.3-1.2-2.2-2.4-1.9
		C267.4,75.8,266.3,76,265.2,76.3z"/>
	<path class="st0" d="M226.5,34c0,2.5-3.5,3.8-5.7,2.2l-6.1-4.4l-4.7-3.3c-2.5-1.8-1-5.1,2.3-5.1h7.7c3.6,0,6.6,2.5,6.6,5.5V34z"/>
	<path class="st0" d="M131,51.5c2.9-0.7,4.6-3.2,4.4-6c-0.2-2.7-1.2-5.4-4.3-6.1c-1-0.2-2.1,0-3.1,0.2c-3,0.5-5.7,1.5-8,3.5
		c-0.7,0.6-1.7,0.7-2.5,0.2c-4.2-2.8-8.9-4.2-13.9-4.2c-3.4,0-6.7,0.5-9.9,1.5c-3.2,1-6,2.5-8.4,4.4c-2.4,1.9-4.4,4.3-5.9,7.1
		c-1.5,2.8-2.2,5.9-2.2,9.5c0,3.3,0.7,6.4,2.1,9.1c1.1,2.1,2.6,4.1,4.4,5.8c0.4,0.4,0.6,0.9,0.6,1.5c0,0.6-0.3,1.1-0.8,1.4
		c-1.5,1-2.8,2.2-4.1,3.5c-1.8,1.8-2.7,4.1-2.7,6.9c0,3,1.4,5.7,4.1,7.8c0.6,0.5,0.9,1.2,0.7,1.9c-0.1,0.6-0.6,1.1-1.1,1.4
		c-1.4,0.8-2.6,1.8-3.5,3c-1.5,2-2.3,4.5-2.3,7.5c0,3.5,1.1,6.4,3.1,8.5c2.1,2.1,4.7,3.8,7.7,4.9c3.1,1.1,6.3,1.8,9.8,2.2
		c3.5,0.4,6.5,0.5,9.1,0.5c11,0,30.7-4.9,30.7-18.7c0-3.5-0.6-6.5-1.8-8.7c-1.2-2.2-2.9-4-4.9-5.3c-2.1-1.3-4.4-2.2-7.1-2.8
		c-2.6-0.6-5.4-1-8.3-1.3c-2.9-0.3-5.8-0.5-8.6-0.6c-2.9-0.1-5.6-0.4-8-0.9c-1.4-0.2-2.2-0.6-2.7-1.1c-0.4-0.5-0.7-1-0.7-1.6
		c0-0.6,0.5-1.2,1.4-1.5c0.9-0.4,1.9-0.6,2.9-0.7c1-0.1,2.1-0.2,3.1-0.2c1,0,1.7-0.1,2-0.1c3.7,0,7.2-0.4,10.4-1.1
		c3.2-0.7,6.1-2,8.4-3.7c2.3-1.7,4.2-3.9,5.6-6.6c1.4-2.7,2.1-6.1,2.1-10c0-3-0.6-5.7-1.6-8.2c-0.3-0.6-0.2-1.2,0.1-1.8
		c0.3-0.5,0.8-0.8,1.4-0.9C129.5,51.5,130.3,51.5,131,51.5 M96.3,54.9c1.8-1.7,4.2-2.5,7.1-2.5c2.6,0,4.8,0.9,6.7,2.7
		c1.8,1.7,2.6,3.9,2.6,6.6c0,2.4-0.9,4.5-2.7,6.3c-1.8,1.8-4,2.8-6.5,2.8c-2.7,0-5-0.8-7-2.4c-2-1.6-3-3.8-3-6.6
		C93.6,58.9,94.5,56.6,96.3,54.9z M105.7,116.4c-2,0-4.1-0.2-6-0.6c-1.2-0.2-2.4-0.6-3.6-1c-0.9-0.3-1.8-0.7-2.6-1.1
		c-0.9-0.5-1.4-1.2-2-2c-0.6-0.7-0.9-1.5-0.9-2.4c0-3.9,6.8-7.1,15.1-7.1c8.3,0,15.1,3.2,15.1,7.1S114.1,116.4,105.7,116.4z"/>
</g>
<path class="st1" d="M300,62.3l-7.7-24.7c-0.3-0.8-0.9-1.5-1.7-1.7L265,28.3c-2.9-0.9-2.3-5,0.8-5h36.7c1.5,0,2.6,1.1,2.6,2.6v35.7
	C305.1,64.5,300.8,65.1,300,62.3z"/>
<g>
	<path class="st1" d="M517.5,104.1h-7.4c-1.3,0-2.3-1-2.3-2.3V64.9c0-4.9-0.9-8.6-2.6-11c-1.8-2.4-4.5-3.6-8.4-3.6
		c-5,0-8.8,1.7-11.1,5.1c-2.4,3.4-3.6,9.1-3.6,17.1v29.2c0,1.3-1.1,2.4-2.4,2.4h-7.4c-1.3,0-2.3-1-2.3-2.3V26c0-1.3,1.1-2.5,2.4-2.5
		l7.1,0c1.4,0,2.5,1.2,2.5,2.5v11.2c0,3.6-0.2,7.5-0.6,11.7h0.8c1.6-3.1,3.9-5.4,6.8-7.1c2.9-1.7,6.3-2.5,10.2-2.5
		c13.7,0,20.6,7.8,20.6,23.3v39.1C519.9,103,518.8,104.1,517.5,104.1z"/>
	<path class="st1" d="M444.2,105.3c-8.6,0-15.1-2.8-19.5-8.4c-4.4-5.6-6.7-13.7-6.7-24.2c0-10.7,2.3-18.9,7-24.7
		c4.7-5.8,11.4-8.6,20.2-8.6c5.2,0,9.9,0.9,14.2,2.8c1.1,0.5,1.7,1.8,1.3,2.9l-2.2,6.6c-0.4,1.2-1.7,1.8-2.9,1.4
		c-4.1-1.6-7.6-2.5-10.5-2.5c-9.8,0-14.7,7.3-14.7,21.9c0,7.1,1.2,12.5,3.7,16.1c2.4,3.6,6,5.4,10.7,5.4c4.2,0,8.3-0.9,12.1-2.8
		c1.4-0.7,3.1,0.3,3.1,1.9v6.9c0,0.9-0.5,1.6-1.2,2.1c-1.8,1-3.7,1.8-5.7,2.3C450.6,105,447.7,105.3,444.2,105.3z"/>
	<path class="st1" d="M387.7,105.2c-8.8,0-15.7-2.9-20.6-8.7c-5-5.8-7.4-13.7-7.4-23.8c0-10.4,2.3-18.6,6.9-24.5
		c4.6-5.9,10.9-8.9,19-8.9c7.5,0,13.4,2.6,17.7,7.7c4.3,5.1,6.5,12.1,6.5,21.1v4.9c0,1.3-1.1,2.4-2.4,2.4h-33
		c-1.3,0-2.2,1.1-2.1,2.3c0.4,5,1.9,9,4.3,11.9c2.8,3.3,6.7,5,11.8,5c3.3,0,6.5-0.4,9.3-1.1c2-0.5,4.1-1.2,6.3-2.2
		c1.4-0.6,2.9,0.4,2.9,1.9v6.3c0,0.9-0.5,1.7-1.3,2.1c-2.5,1.2-5,2.1-7.6,2.7C394.9,104.9,391.5,105.2,387.7,105.2z M385.5,49.5
		c-3.8,0-6.9,1.4-9.2,4.1c-1.9,2.3-3.2,5.4-3.8,9.4c-0.2,1.3,0.8,2.5,2.1,2.5h21.1c1.2,0,2.2-1,2.1-2.2c-0.3-4.2-1.4-7.4-3.3-9.7
		C392.3,50.9,389.3,49.5,385.5,49.5z"/>
	<path class="st1" d="M342.8,94.3c2,0,4-0.2,6-0.7c1.4-0.3,2.8,0.7,2.8,2.2v5.7c0,1-0.6,1.8-1.5,2.1c-1,0.4-2.3,0.7-3.6,1
		c-2.1,0.4-4.3,0.7-6.5,0.7c-11.4,0-17.1-6.8-17.1-20.3V50.7h-5.3c-1.3,0-2.4-1.1-2.4-2.4v-5.5c0-1.4,1.1-2.5,2.5-2.5h5.6l0-11.7
		c0-1.3,1.1-2.4,2.4-2.4h6.9c1.3,0,2.4,1.1,2.4,2.4v11.7h13.6c1.4,0,2.5,1.1,2.5,2.5v5.3c0,1.3-1.1,2.4-2.4,2.4h-13.7v34.1
		c0,3.3,0.7,5.7,2.2,7.2C338.5,93.6,340.4,94.3,342.8,94.3z"/>
</g>
</svg>
