<?xml version="1.0" standalone="no"?>
<!DOCTYPE svg PUBLIC "-//W3C//DTD SVG 20010904//EN"
 "http://www.w3.org/TR/2001/REC-SVG-20010904/DTD/svg10.dtd">
<svg version="1.0" xmlns="http://www.w3.org/2000/svg"
 width="225.000000pt" height="225.000000pt" viewBox="0 0 225.000000 225.000000"
 preserveAspectRatio="xMidYMid meet">
<metadata>
Created by potrace 1.15, written by Peter Selinger 2001-2017
</metadata>
<g transform="translate(0.000000,225.000000) scale(0.100000,-0.100000)"
fill="#000000" stroke="none">
<path d="M560 2040 l0 -210 -280 0 -280 0 0 -915 0 -915 1125 0 1125 0 0 915
0 915 -280 0 -280 0 0 210 0 210 -565 0 -565 0 0 -210z m990 -915 l0 -985 -75
0 -75 0 0 210 0 210 -275 0 -275 0 0 -210 0 -210 -75 0 -75 0 0 985 0 985 425
0 425 0 0 -985z m-990 -35 l0 -600 -210 0 -210 0 0 600 0 600 210 0 210 0 0
-600z m1550 0 l0 -600 -210 0 -210 0 0 600 0 600 210 0 210 0 0 -600z m-840
-810 l0 -140 -145 0 -145 0 0 140 0 140 145 0 145 0 0 -140z m-710 -35 l0
-105 -210 0 -210 0 0 105 0 105 210 0 210 0 0 -105z m1550 0 l0 -105 -210 0
-210 0 0 105 0 105 210 0 210 0 0 -105z"/>
<path d="M850 1900 l0 -70 65 0 65 0 0 70 0 70 -65 0 -65 0 0 -70z"/>
<path d="M1270 1900 l0 -70 65 0 65 0 0 70 0 70 -65 0 -65 0 0 -70z"/>
<path d="M850 1620 l0 -70 65 0 65 0 0 70 0 70 -65 0 -65 0 0 -70z"/>
<path d="M1270 1620 l0 -70 65 0 65 0 0 70 0 70 -65 0 -65 0 0 -70z"/>
<path d="M850 1335 l0 -65 65 0 65 0 0 65 0 65 -65 0 -65 0 0 -65z"/>
<path d="M1270 1335 l0 -65 65 0 65 0 0 65 0 65 -65 0 -65 0 0 -65z"/>
<path d="M850 1055 l0 -65 65 0 65 0 0 65 0 65 -65 0 -65 0 0 -65z"/>
<path d="M1270 1055 l0 -65 65 0 65 0 0 65 0 65 -65 0 -65 0 0 -65z"/>
<path d="M850 770 l0 -70 65 0 65 0 0 70 0 70 -65 0 -65 0 0 -70z"/>
<path d="M1270 770 l0 -70 65 0 65 0 0 70 0 70 -65 0 -65 0 0 -70z"/>
<path d="M280 1335 l0 -65 70 0 70 0 0 65 0 65 -70 0 -70 0 0 -65z"/>
<path d="M280 1055 l0 -65 70 0 70 0 0 65 0 65 -70 0 -70 0 0 -65z"/>
<path d="M282 773 l3 -68 68 -3 67 -3 0 71 0 70 -70 0 -71 0 3 -67z"/>
<path d="M1830 1335 l0 -65 70 0 70 0 0 65 0 65 -70 0 -70 0 0 -65z"/>
<path d="M1830 1055 l0 -65 70 0 70 0 0 65 0 65 -70 0 -70 0 0 -65z"/>
<path d="M1830 770 l0 -71 68 3 67 3 3 68 3 67 -71 0 -70 0 0 -70z"/>
</g>
</svg>
